<svg width="16" height="16" viewBox="0 0 16 16" fill="none" xmlns="http://www.w3.org/2000/svg">
<path d="M12.8537 7.35378C12.8073 7.40027 12.7521 7.43714 12.6914 7.46231C12.6307 7.48747 12.5657 7.50042 12.5 7.50042C12.4343 7.50042 12.3692 7.48747 12.3085 7.46231C12.2478 7.43714 12.1927 7.40027 12.1462 7.35378L8.49997 3.7069V13.5C8.49997 13.6326 8.44729 13.7598 8.35353 13.8536C8.25976 13.9473 8.13258 14 7.99997 14C7.86736 14 7.74019 13.9473 7.64642 13.8536C7.55265 13.7598 7.49997 13.6326 7.49997 13.5V3.7069L3.85372 7.35378C3.7599 7.4476 3.63265 7.50031 3.49997 7.50031C3.36729 7.50031 3.24004 7.4476 3.14622 7.35378C3.0524 7.25996 2.99969 7.13271 2.99969 7.00003C2.99969 6.86735 3.0524 6.7401 3.14622 6.64628L7.64622 2.14628C7.69266 2.09979 7.7478 2.06291 7.8085 2.03775C7.8692 2.01259 7.93427 1.99963 7.99997 1.99963C8.06568 1.99963 8.13074 2.01259 8.19144 2.03775C8.25214 2.06291 8.30729 2.09979 8.35372 2.14628L12.8537 6.64628C12.9002 6.69271 12.9371 6.74786 12.9623 6.80856C12.9874 6.86926 13.0004 6.93432 13.0004 7.00003C13.0004 7.06573 12.9874 7.1308 12.9623 7.1915C12.9371 7.2522 12.9002 7.30734 12.8537 7.35378Z" fill="#0E1011"/>
</svg>
