<svg width="16" height="16" viewBox="0 0 16 16" fill="none" xmlns="http://www.w3.org/2000/svg">
<path d="M12.3538 12.3538C12.3073 12.4002 12.2522 12.4371 12.1915 12.4623C12.1308 12.4874 12.0657 12.5004 12 12.5004C11.9343 12.5004 11.8692 12.4874 11.8085 12.4623C11.7478 12.4371 11.6927 12.4002 11.6462 12.3538L4.5 5.20687V10.5C4.5 10.6326 4.44732 10.7598 4.35355 10.8536C4.25979 10.9473 4.13261 11 4 11C3.86739 11 3.74021 10.9473 3.64645 10.8536C3.55268 10.7598 3.5 10.6326 3.5 10.5V4C3.5 3.86739 3.55268 3.74021 3.64645 3.64645C3.74021 3.55268 3.86739 3.5 4 3.5H10.5C10.6326 3.5 10.7598 3.55268 10.8536 3.64645C10.9473 3.74021 11 3.86739 11 4C11 4.13261 10.9473 4.25979 10.8536 4.35355C10.7598 4.44732 10.6326 4.5 10.5 4.5H5.20687L12.3538 11.6462C12.4002 11.6927 12.4371 11.7478 12.4623 11.8085C12.4874 11.8692 12.5004 11.9343 12.5004 12C12.5004 12.0657 12.4874 12.1308 12.4623 12.1915C12.4371 12.2522 12.4002 12.3073 12.3538 12.3538Z" fill="#0E1011"/>
</svg>
