<svg width="16" height="16" viewBox="0 0 16 16" fill="none" xmlns="http://www.w3.org/2000/svg">
<path d="M12.3538 4.35378L5.20687 11.5H10.5C10.6326 11.5 10.7598 11.5527 10.8536 11.6465C10.9473 11.7402 11 11.8674 11 12C11 12.1326 10.9473 12.2598 10.8536 12.3536C10.7598 12.4474 10.6326 12.5 10.5 12.5H4C3.86739 12.5 3.74021 12.4474 3.64645 12.3536C3.55268 12.2598 3.5 12.1326 3.5 12V5.50003C3.5 5.36743 3.55268 5.24025 3.64645 5.14648C3.74021 5.05271 3.86739 5.00003 4 5.00003C4.13261 5.00003 4.25979 5.05271 4.35355 5.14648C4.44732 5.24025 4.5 5.36743 4.5 5.50003V10.7932L11.6462 3.64628C11.6927 3.59983 11.7479 3.56298 11.8086 3.53784C11.8692 3.5127 11.9343 3.49976 12 3.49976C12.0657 3.49976 12.1308 3.5127 12.1914 3.53784C12.2521 3.56298 12.3073 3.59983 12.3538 3.64628C12.4002 3.69274 12.4371 3.74789 12.4622 3.80859C12.4873 3.86928 12.5003 3.93434 12.5003 4.00003C12.5003 4.06573 12.4873 4.13079 12.4622 4.19148C12.4371 4.25218 12.4002 4.30733 12.3538 4.35378Z" fill="#0E1011"/>
</svg>
