<svg width="16" height="16" viewBox="0 0 16 16" fill="none" xmlns="http://www.w3.org/2000/svg">
<path d="M14 8.00003C14 8.13264 13.9473 8.25982 13.8536 8.35359C13.7598 8.44736 13.6326 8.50003 13.5 8.50003H3.7069L7.35378 12.1463C7.40023 12.1927 7.43708 12.2479 7.46222 12.3086C7.48737 12.3693 7.50031 12.4343 7.50031 12.5C7.50031 12.5657 7.48737 12.6308 7.46222 12.6915C7.43708 12.7522 7.40023 12.8073 7.35378 12.8538C7.30732 12.9002 7.25217 12.9371 7.19148 12.9622C7.13078 12.9874 7.06572 13.0003 7.00003 13.0003C6.93433 13.0003 6.86928 12.9874 6.80858 12.9622C6.74788 12.9371 6.69273 12.9002 6.64628 12.8538L2.14628 8.35378C2.09979 8.30735 2.06291 8.2522 2.03775 8.1915C2.01259 8.13081 1.99963 8.06574 1.99963 8.00003C1.99963 7.93433 2.01259 7.86926 2.03775 7.80856C2.06291 7.74786 2.09979 7.69272 2.14628 7.64628L6.64628 3.14628C6.7401 3.05246 6.86735 2.99976 7.00003 2.99976C7.13271 2.99976 7.25996 3.05246 7.35378 3.14628C7.4476 3.2401 7.50031 3.36735 7.50031 3.50003C7.50031 3.63272 7.4476 3.75996 7.35378 3.85378L3.7069 7.50003H13.5C13.6326 7.50003 13.7598 7.55271 13.8536 7.64648C13.9473 7.74025 14 7.86743 14 8.00003Z" fill="#0E1011"/>
</svg>
