<svg width="16" height="16" viewBox="0 0 16 16" fill="none" xmlns="http://www.w3.org/2000/svg">
<path d="M12.5 5.50003V12C12.5 12.1326 12.4473 12.2598 12.3535 12.3536C12.2598 12.4474 12.1326 12.5 12 12.5H5.49997C5.36736 12.5 5.24019 12.4474 5.14642 12.3536C5.05265 12.2598 4.99997 12.1326 4.99997 12C4.99997 11.8674 5.05265 11.7402 5.14642 11.6465C5.24019 11.5527 5.36736 11.5 5.49997 11.5H10.7931L3.64622 4.35378C3.5524 4.25996 3.49969 4.13272 3.49969 4.00003C3.49969 3.86735 3.5524 3.7401 3.64622 3.64628C3.74004 3.55246 3.86729 3.49976 3.99997 3.49976C4.13265 3.49976 4.2599 3.55246 4.35372 3.64628L11.5 10.7932V5.50003C11.5 5.36743 11.5527 5.24025 11.6464 5.14648C11.7402 5.05271 11.8674 5.00003 12 5.00003C12.1326 5.00003 12.2598 5.05271 12.3535 5.14648C12.4473 5.24025 12.5 5.36743 12.5 5.50003Z" fill="#0E1011"/>
</svg>
