<svg width="16" height="16" viewBox="0 0 16 16" fill="none" xmlns="http://www.w3.org/2000/svg">
<path d="M10 5C10 4.86739 10.0527 4.74021 10.1464 4.64645C10.2402 4.55268 10.3674 4.5 10.5 4.5H14.5C14.6326 4.5 14.7598 4.55268 14.8536 4.64645C14.9473 4.74021 15 4.86739 15 5C15 5.13261 14.9473 5.25979 14.8536 5.35355C14.7598 5.44732 14.6326 5.5 14.5 5.5H10.5C10.3674 5.5 10.2402 5.44732 10.1464 5.35355C10.0527 5.25979 10 5.13261 10 5ZM8.5 9.875C8.5 10.5712 8.22344 11.2389 7.73116 11.7312C7.23887 12.2234 6.57119 12.5 5.875 12.5H2C1.86739 12.5 1.74021 12.4473 1.64645 12.3536C1.55268 12.2598 1.5 12.1326 1.5 12V4C1.5 3.86739 1.55268 3.74021 1.64645 3.64645C1.74021 3.55268 1.86739 3.5 2 3.5H5.625C6.10321 3.50051 6.57014 3.64537 6.96466 3.91562C7.35919 4.18588 7.66294 4.56894 7.83617 5.01467C8.0094 5.46041 8.04404 5.94806 7.93555 6.4138C7.82706 6.87955 7.58049 7.3017 7.22813 7.625C7.61621 7.85846 7.9373 8.18835 8.16017 8.58262C8.38304 8.97688 8.50011 9.4221 8.5 9.875ZM2.5 7.25H5.625C5.98967 7.25 6.33941 7.10513 6.59727 6.84727C6.85513 6.58941 7 6.23967 7 5.875C7 5.51033 6.85513 5.16059 6.59727 4.90273C6.33941 4.64487 5.98967 4.5 5.625 4.5H2.5V7.25ZM7.5 9.875C7.5 9.6616 7.45797 9.45029 7.3763 9.25314C7.29464 9.05599 7.17494 8.87685 7.02405 8.72595C6.87315 8.57506 6.69401 8.45536 6.49686 8.3737C6.29971 8.29203 6.0884 8.25 5.875 8.25H2.5V11.5H5.875C6.0884 11.5 6.29971 11.458 6.49686 11.3763C6.69401 11.2946 6.87315 11.1749 7.02405 11.024C7.17494 10.8732 7.29464 10.694 7.3763 10.4969C7.45797 10.2997 7.5 10.0884 7.5 9.875ZM15.5 9.5C15.5 9.63261 15.4473 9.75979 15.3536 9.85355C15.2598 9.94732 15.1326 10 15 10H10.5625C10.6566 10.3648 10.8519 10.6957 11.1258 10.9544C11.3997 11.2131 11.7412 11.3892 12.1108 11.4623C12.4804 11.5355 12.8632 11.5027 13.215 11.3679C13.5668 11.233 13.8734 11.0015 14.0994 10.7C14.1388 10.6475 14.1882 10.6032 14.2447 10.5698C14.3013 10.5363 14.3639 10.5144 14.4289 10.5051C14.4939 10.4959 14.5601 10.4995 14.6238 10.5158C14.6874 10.5322 14.7472 10.5609 14.7997 10.6003C14.8522 10.6398 14.8965 10.6891 14.9299 10.7457C14.9633 10.8022 14.9853 10.8648 14.9946 10.9298C15.0038 10.9949 15.0002 11.0611 14.9839 11.1247C14.9675 11.1883 14.9388 11.2481 14.8994 11.3006C14.4718 11.8703 13.8554 12.2693 13.1606 12.4262C12.4658 12.583 11.7378 12.4875 11.1069 12.1567C10.4761 11.826 9.98349 11.2815 9.71732 10.6208C9.45115 9.9601 9.42875 9.22623 9.65415 8.55052C9.87954 7.8748 10.338 7.30133 10.9475 6.93272C11.5571 6.56411 12.2779 6.4244 12.981 6.5386C13.6841 6.65279 14.3236 7.01344 14.7851 7.55602C15.2466 8.09859 15.5 8.78768 15.5 9.5ZM14.4375 9C14.3273 8.56979 14.0771 8.18848 13.7263 7.91618C13.3755 7.64388 12.9441 7.49608 12.5 7.49608C12.0559 7.49608 11.6245 7.64388 11.2737 7.91618C10.9229 8.18848 10.6727 8.56979 10.5625 9H14.4375Z" fill="#0E1011"/>
</svg>
