<svg width="16" height="16" viewBox="0 0 16 16" fill="none" xmlns="http://www.w3.org/2000/svg">
<path d="M8 1.5C6.71442 1.5 5.45772 1.88122 4.3888 2.59545C3.31988 3.30968 2.48676 4.32484 1.99479 5.51256C1.50282 6.70028 1.37409 8.00721 1.6249 9.26809C1.8757 10.529 2.49477 11.6872 3.40381 12.5962C4.31285 13.5052 5.47104 14.1243 6.73192 14.3751C7.99279 14.6259 9.29973 14.4972 10.4874 14.0052C11.6752 13.5132 12.6903 12.6801 13.4046 11.6112C14.1188 10.5423 14.5 9.28558 14.5 8C14.4982 6.27665 13.8128 4.62441 12.5942 3.40582C11.3756 2.18722 9.72335 1.50182 8 1.5ZM13.4781 7.51125C13.319 7.50375 13.1596 7.5 13 7.5C12.0725 7.50028 11.1491 7.623 10.2538 7.865C10.0355 7.21723 9.75391 6.59255 9.41313 6C10.3019 5.46409 11.1064 4.7996 11.8006 4.02812C12.7639 4.94716 13.3601 6.18513 13.4781 7.51125ZM11.0175 3.40375C10.3929 4.08996 9.67109 4.68083 8.875 5.1575C8.20825 4.219 7.39273 3.39566 6.46063 2.72C7.22527 2.49678 8.02927 2.44232 8.81703 2.56037C9.6048 2.67843 10.3575 2.96619 11.0231 3.40375H11.0175ZM5.35313 3.18C6.37478 3.82334 7.26545 4.65421 7.97813 5.62875C6.73078 6.20369 5.37348 6.50096 4 6.5C3.57611 6.49982 3.15268 6.47163 2.7325 6.41563C3.15066 5.0366 4.09105 3.87552 5.35313 3.18ZM2.5 8C2.50001 7.79871 2.51107 7.59758 2.53313 7.3975C3.01911 7.4657 3.50926 7.49995 4 7.5C5.56847 7.50148 7.1173 7.15122 8.5325 6.475C8.84423 7.01346 9.10194 7.58144 9.30188 8.17062C8.77073 8.37012 8.25674 8.61259 7.765 8.89563C6.39314 9.68812 5.21688 10.7787 4.32313 12.0869C3.74917 11.572 3.29016 10.9419 2.97603 10.2377C2.6619 9.53355 2.4997 8.77107 2.5 8ZM5.125 12.6875C5.93646 11.4873 7.01019 10.4873 8.265 9.76313C8.68454 9.52106 9.12233 9.31209 9.57438 9.13813C9.72908 9.82467 9.80726 10.5262 9.8075 11.23C9.8078 11.9142 9.73468 12.5964 9.58938 13.265C8.84664 13.4894 8.06481 13.5539 7.29534 13.4544C6.52587 13.3548 5.78619 13.0935 5.125 12.6875ZM10.6913 12.7956C10.7684 12.2784 10.8073 11.7561 10.8075 11.2331C10.8074 10.4236 10.7141 9.61687 10.5294 8.82875C11.335 8.61136 12.1656 8.50082 13 8.5C13.1583 8.5 13.3169 8.50396 13.4756 8.51188C13.3919 9.39759 13.0949 10.2499 12.61 10.9958C12.1251 11.7417 11.4668 12.359 10.6913 12.795V12.7956Z" fill="#0E1011"/>
</svg>
