<svg width="16" height="16" viewBox="0 0 16 16" fill="none" xmlns="http://www.w3.org/2000/svg">
<path d="M13.7069 6.79254L8.70687 1.79254C8.51936 1.60514 8.2651 1.49988 8 1.49988C7.7349 1.49988 7.48064 1.60514 7.29312 1.79254L2.29312 6.79254C2.19981 6.88516 2.12585 6.9954 2.07553 7.11686C2.0252 7.23832 1.99953 7.36857 2 7.50004V13.5C2 13.6326 2.05268 13.7598 2.14645 13.8536C2.24021 13.9474 2.36739 14 2.5 14H6.5C6.63261 14 6.75978 13.9474 6.85355 13.8536C6.94732 13.7598 7 13.6326 7 13.5V10H9V13.5C9 13.6326 9.05268 13.7598 9.14644 13.8536C9.24021 13.9474 9.36739 14 9.5 14H13.5C13.6326 14 13.7598 13.9474 13.8536 13.8536C13.9473 13.7598 14 13.6326 14 13.5V7.50004C14.0005 7.36857 13.9748 7.23832 13.9245 7.11686C13.8742 6.9954 13.8002 6.88516 13.7069 6.79254ZM13 13H10V9.50004C10 9.36743 9.94732 9.24025 9.85355 9.14649C9.75978 9.05272 9.63261 9.00004 9.5 9.00004H6.5C6.36739 9.00004 6.24021 9.05272 6.14645 9.14649C6.05268 9.24025 6 9.36743 6 9.50004V13H3V7.50004L8 2.50004L13 7.50004V13Z" fill="#0E1011"/>
</svg>
