<svg width="16" height="16" viewBox="0 0 16 16" fill="none" xmlns="http://www.w3.org/2000/svg">
<path d="M14 7.00004C14 8.41067 13.5063 9.70004 12.6106 10.6319C11.7744 11.5 10.6406 12 9.5 12C8.3825 12 7.63625 11.6338 7.16063 11.25L6.48688 14.1138C6.46121 14.2237 6.39913 14.3216 6.31074 14.3917C6.22234 14.4619 6.11283 14.5 6 14.5C5.96129 14.5 5.92272 14.4956 5.885 14.4869C5.82083 14.4722 5.7602 14.4449 5.70659 14.4067C5.65298 14.3685 5.60745 14.3201 5.5726 14.2642C5.53776 14.2083 5.51429 14.1461 5.50355 14.0812C5.49281 14.0162 5.495 13.9498 5.51 13.8857L7.51 5.38567C7.54033 5.25654 7.62072 5.14475 7.73348 5.07489C7.84623 5.00504 7.98212 4.98283 8.11125 5.01317C8.24038 5.0435 8.35217 5.12389 8.42202 5.23664C8.49188 5.3494 8.51408 5.48529 8.48375 5.61442L7.4275 10.1019C7.625 10.375 8.20625 11 9.5 11C11.2206 11 13 9.50379 13 7.00004C12.9997 6.30996 12.8408 5.62918 12.5354 5.01035C12.23 4.39151 11.7863 3.85121 11.2388 3.43121C10.6912 3.01121 10.0544 2.72277 9.37758 2.58819C8.70074 2.45362 8.00202 2.4765 7.33545 2.65509C6.66887 2.83368 6.0523 3.16318 5.5334 3.61811C5.01451 4.07305 4.60719 4.64123 4.34296 5.27872C4.07872 5.91621 3.96464 6.60594 4.00953 7.29456C4.05443 7.98318 4.2571 8.65226 4.60188 9.25004C4.66407 9.36457 4.67908 9.49886 4.64372 9.6243C4.60836 9.74974 4.52542 9.85642 4.41256 9.9216C4.29971 9.98679 4.16586 10.0053 4.03954 9.97329C3.91321 9.94125 3.80439 9.86114 3.73625 9.75004C3.31464 9.01942 3.06674 8.20162 3.01172 7.35988C2.95669 6.51814 3.09601 5.67502 3.41891 4.89574C3.74181 4.11645 4.23963 3.42188 4.87387 2.86574C5.50812 2.3096 6.26178 1.9068 7.07657 1.68849C7.89137 1.47017 8.74546 1.4422 9.5728 1.60674C10.4001 1.77128 11.1785 2.12391 11.8478 2.63736C12.5171 3.15081 13.0593 3.81133 13.4325 4.56782C13.8057 5.32431 13.9998 6.15651 14 7.00004Z" fill="#0E1011"/>
</svg>
