<svg width="16" height="16" viewBox="0 0 16 16" fill="none" xmlns="http://www.w3.org/2000/svg">
<path d="M15.4619 4.30876C15.424 4.21739 15.36 4.13929 15.2778 4.08433C15.1956 4.02938 15.0989 4.00003 15 4.00001H13.0981C12.8322 3.54762 12.4538 3.17173 11.9996 2.90889C11.5454 2.64604 11.031 2.50519 10.5063 2.50001C10.1153 2.49485 9.7273 2.56794 9.36504 2.71499C9.00278 2.86204 8.6736 3.08008 8.39687 3.35626C8.11204 3.63578 7.88597 3.96942 7.73195 4.33757C7.57793 4.70571 7.49907 5.10094 7.5 5.50001V5.88064C4.98375 5.21689 2.92562 3.17001 2.90375 3.14814C2.83667 3.08046 2.75165 3.03336 2.6587 3.01239C2.56575 2.99142 2.46874 2.99744 2.3791 3.02975C2.28946 3.06206 2.21091 3.11931 2.15272 3.19477C2.09453 3.27022 2.0591 3.36073 2.05062 3.45564C1.78125 6.44251 2.64875 8.44126 3.42562 9.59189C3.80447 10.1607 4.26528 10.6703 4.79312 11.1044C3.84125 12.2 2.3425 12.7756 2.32625 12.7819C2.2557 12.8083 2.19203 12.8503 2.14 12.9048C2.08797 12.9593 2.04893 13.0249 2.02579 13.0966C2.00265 13.1683 1.99601 13.2443 2.00637 13.3189C2.01674 13.3935 2.04383 13.4648 2.08562 13.5275C2.1325 13.5975 2.32 13.8431 2.77812 14.0725C3.34437 14.3563 4.0925 14.5 5 14.5C9.41687 14.5 13.1075 11.0988 13.4844 6.72251L15.3538 4.85376C15.4237 4.7838 15.4712 4.69467 15.4905 4.59766C15.5097 4.50065 15.4998 4.40011 15.4619 4.30876ZM12.6494 6.14689C12.5637 6.23282 12.5121 6.347 12.5044 6.46814C12.25 10.4113 8.955 13.5 5 13.5C4.34 13.5 3.875 13.4125 3.54875 13.3075C4.26812 12.9169 5.27125 12.245 5.91625 11.2775C5.95411 11.2206 5.9799 11.1566 5.99204 11.0893C6.00417 11.0221 6.0024 10.9531 5.98682 10.8865C5.97124 10.82 5.94219 10.7574 5.90146 10.7025C5.86072 10.6476 5.80918 10.6017 5.75 10.5675C5.72062 10.5506 3.00562 8.92126 3 4.56751C4 5.38001 5.82812 6.64064 7.91687 6.99189C7.98846 7.00396 8.06182 7.00029 8.13184 6.98115C8.20187 6.96201 8.26689 6.92784 8.32238 6.88103C8.37788 6.83423 8.42251 6.7759 8.45318 6.7101C8.48385 6.6443 8.49983 6.57261 8.5 6.50001V5.50001C8.49944 5.23329 8.55223 4.96916 8.65527 4.72314C8.75831 4.47713 8.90952 4.25421 9.1 4.06751C9.2826 3.88457 9.50002 3.7401 9.73941 3.64262C9.9788 3.54515 10.2353 3.49666 10.4937 3.50001C11.285 3.51001 12.0244 3.99251 12.3337 4.70064C12.3728 4.78967 12.4369 4.8654 12.5182 4.91857C12.5996 4.97174 12.6947 5.00004 12.7919 5.00001H13.7919L12.6494 6.14689Z" fill="#0E1011"/>
</svg>
