<?xml version="1.0" encoding="UTF-8"?>
<svg xmlns="http://www.w3.org/2000/svg" version="1.1" viewBox="0 0 698.735 116.285">
  <defs>
    <style>
      .cls-1 {
        fill: #0E1011;
      }
    </style>
  </defs>
  <!-- Generator: Adobe Illustrator 28.7.5, SVG Export Plug-In . SVG Version: 1.2.0 Build 176)  -->
  <g>
    <g id="Layer_1">
      <g id="Layer_1-2" data-name="Layer_1">
        <g id="Dilamco-2">
          <path class="cls-1" d="M291.8,2.108c2.4-.6,4.7-1.1,7.3-1.7,4.5,12.5,8.9,24.6,13.3,36.8,6.8,18.6,13.6,37.1,20.4,55.6,1.2,3.1,2.6,6.2,4.3,8.9,2.4,3.8,5.8,6.6,10.7,5.6,5.1-1,8.1-4.5,8.8-9.6,1.1-8.1,2.2-16.1,2.9-24.2,1.3-16.2,2.2-32.5,3.3-48.7,1-14.7-3-15.7-12.5-17-.6,0-1.3-.4-2.2-.6,0-1.2-.2-2.5-.2-4h32.6c11.4,25.6,23,51.4,35.2,78.6,12.3-27,24.1-52.8,35.9-78.6h32.2v4.2c-1.6.4-3.2.8-4.8,1.1-7.5,1.2-9.9,3.4-9.7,11.2.5,25.8,1.2,51.5,2,77.3.2,7.5,2.6,9.7,10.1,11.1,1.3.3,2.6.6,4.4,1,0,1.2.1,2.6.2,4.2h-48c0-1.4-.1-2.7-.2-3.8.5-.3.8-.6,1.1-.7,12.6-3.3,12.8-3.5,12.7-16.5,0-21.6,0-43.3-.2-64.9,0-1.6-.2-3.2-.3-4.8-.5-.1-.9-.2-1.4-.4-12.9,29.8-25.9,59.7-38.9,89.7h-4.3c-12-29.4-23.9-58.5-35.7-87.6l-1.2.2c-.4,5.2-.9,10.3-1.1,15.5-.7,14.3-1.4,28.6-1.9,42.8-.2,4.6,0,9.3.5,13.9.7,7.9,2.8,9.9,10.7,11,1.3.2,2.6.5,4.3.8,0,1.5.1,2.8.2,4.5h-77.3v-4c.5-.3.7-.6,1-.7,9.9-3.1,10.1-3.4,6.7-13.2-2.1-6-4.3-11.8-6.5-17.8-.2-.6-.6-1.2-1-1.9h-34.4c-2.6,8.4-5.5,16.9-7.7,25.7-.4,1.4,2.1,4.2,3.9,5.4,2,1.3,4.7,1.5,7.3,2.2,0,1.3.1,2.6.2,4.2H112.4v-3.8c.5-.3.7-.5,1-.5,12.6-2.8,13.6-3.9,13.6-16.9V20.808c-.4-9.4-1.9-11-11.1-12.8-1.1-.2-2.2-.6-3.5-.9V3.008h95.1v4.1c-1.4.4-2.5.8-3.6,1-8.9,1.7-10.5,3.4-10.5,12.6v74.4c0,8.7,2.1,10.9,10.6,11.6h.5c20.6,1.8,25.7-1.2,33.8-19.9.3-.6.6-1.2,1.1-2.2,1.5.3,3,.6,5.1,1.1-1.5,7.4-2.9,14.4-4.3,21.8,6.7-.1,10.3-3.8,12.5-8.9,4.5-10.5,8.8-21.2,13.1-31.8,8.6-21.4,17.1-42.8,25.9-64.8l.1.1ZM146.6,57.808c0,13.3-.2,26.6.2,39.9,0,2.9,1.7,7,3.9,8.4,5.8,3.6,12.6,3.1,18.6.1,5.2-2.5,4.7-8,4.7-12.8V22.008c0-2.3-.4-4.6-.7-6.9-.5-3.9-3.1-5.9-6.6-6.5-3.4-.5-6.9-.7-10.3-.3-7.8.9-9.6,3.1-9.7,11-.1,12.8,0,25.6,0,38.4l-.1.1ZM289.5,28.908c-.5,0-1.1,0-1.6-.1-4.7,12.7-9.3,25.4-14.1,38.5h29c-4.6-13.2-9-25.8-13.4-38.4h.1Z"/>
          <path class="cls-1" d="M1.6,7.208V2.908c9.7,0,19.2-.2,28.6,0,14.6.4,29.3.1,43.7,2.1,19.3,2.6,33.4,13.6,38.7,32.8,5.6,20,2.6,38.9-11.6,55-10.2,11.5-23.6,17.8-38.4,19.1-20.5,1.8-41.1,1.6-61.9,2.3-.3-2.2-.5-3.4-.7-4.9,1.9-.5,3.5-.9,5.1-1.2,7.9-1.5,10.1-3.6,10.2-11.5.2-25.6.2-51.2,0-76.8,0-8-1.4-9-13.6-12.5l-.1-.1ZM34.8,55.108v37.9c0,8.1,3.6,12.6,10.4,13.6,17.5,2.7,33.9-5.7,41.7-21.7,6.1-12.5,7.4-25.8,5.2-39.4-4.4-27.3-25.6-39.6-49.3-36.5-6.8.9-8,2.5-8,9.6v36.5Z"/>
          <path class="cls-1" d="M642.935.407c29.814.877,53.88,23.481,52.809,56.998-1.072,34.296-26.112,57.388-59.142,55.829-32.348-1.559-54.465-26.404-53.004-59.629,1.267-31.471,27.184-54.66,59.337-53.198h0ZM605.423,53.703c.585,14.225,2.923,27.963,11.789,39.753,15.2,20.363,41.896,17.343,51.445-6.138,2.826-6.918,4.287-14.615,4.872-22.117,1.169-16.271-.877-32.153-10.815-45.793-13.738-18.805-38.096-17.246-49.691,2.826-5.651,9.646-7.015,20.363-7.502,31.373l-.098.097Z"/>
          <path class="cls-1" d="M577.34,8.057c1.139,8.543,2.278,16.421,3.417,24.679-1.898.475-3.322.854-4.936,1.329-.475-1.139-.759-1.803-1.044-2.563-4.082-12.529-12.245-20.503-25.723-21.831-13.194-1.329-24.394,2.753-32.652,13.289-9.017,11.485-11.675,24.964-10.536,39.202.759,10.156,3.322,19.933,9.397,28.381,8.733,12.15,20.503,17.845,35.595,15.852,9.967-1.329,16.801-7.499,22.211-15.472,1.803-2.753,3.512-5.6,5.41-8.827,1.519.57,3.037,1.139,5.126,1.898-3.037,8.638-5.98,16.896-8.828,24.964-19.364,4.556-37.873,6.929-56.477,0-22.496-8.353-35.785-30.184-33.886-54.009,2.373-29.33,24.394-47.46,52.111-51.067,12.529-1.614,24.869-.19,37.019,2.848,1.234.285,2.373.759,3.702,1.234l.095.095Z"/>
        </g>
      </g>
    </g>
  </g>
</svg>