<svg width="100" height="25" viewBox="0 0 100 25" fill="none" xmlns="http://www.w3.org/2000/svg">
<g clip-path="url(#clip0_9171_2060)">
<mask id="mask0_9171_2060" style="mask-type:luminance" maskUnits="userSpaceOnUse" x="-1" y="0" width="101" height="25">
<path d="M99.874 0H-0.000976562V25H99.874V0Z" fill="white"/>
</mask>
<g mask="url(#mask0_9171_2060)">
<path fill-rule="evenodd" clip-rule="evenodd" d="M14.4108 0.162476L19.1899 5.82823L20.3046 16.2979L11.8692 25.1625L2.05469 16.2687L6.9965 3.69466L14.4108 0.162476ZM7.42508 4.65998L11.367 8.8242L7.3357 14.6713L3.11074 15.6375L7.42508 4.65998ZM3.28837 16.3704L10.7805 23.1596L7.34438 15.4429L3.28837 16.3704ZM8.16719 15.4419L11.9646 23.9701L19.1045 16.467L8.16719 15.4419ZM19.4335 15.2154L18.5074 6.51859L12.5459 8.91329L19.4335 15.2154ZM11.9468 8.34156L18.2048 5.82778L14.2106 1.09269L7.92126 4.08901L11.9468 8.34156ZM11.9143 9.35604L18.8299 15.6838L8.23618 14.6909L11.9143 9.35604Z" fill="white"/>
<path d="M50.2515 19.81C48.134 19.81 46.3465 19.1225 44.9165 17.72C43.4865 16.3175 42.7715 14.5575 42.7715 12.4675C42.7715 10.3775 43.4865 8.645 44.9165 7.2425C46.3465 5.84 48.134 5.125 50.2515 5.125C52.039 5.125 53.579 5.6475 54.9265 6.6925C56.274 7.71 57.1265 9.0575 57.484 10.68H54.9815C54.239 8.7275 52.4515 7.4075 50.2515 7.4075C48.794 7.4075 47.6115 7.9025 46.649 8.865C45.6865 9.8275 45.219 11.01 45.219 12.4675C45.219 13.925 45.6865 15.135 46.649 16.0975C47.6115 17.06 48.794 17.5275 50.2515 17.5275C52.4515 17.5275 54.239 16.2075 54.9815 14.255H57.484C57.1265 15.8775 56.274 17.225 54.9265 18.27C53.579 19.2875 52.039 19.81 50.2515 19.81Z" fill="white"/>
<path d="M80.8397 6.5825C79.8772 5.62 78.6122 5.125 77.0447 5.125C74.7072 5.125 73.0022 6.0875 71.9847 8.04C71.1872 6.1975 69.4272 5.125 67.1997 5.125C65.1647 5.125 63.6247 5.895 62.6072 7.4625V5.455H60.2422V19.48H62.6072V11.1475C62.6072 8.92 64.1472 7.4075 66.4572 7.4075C68.6572 7.4075 70.0872 8.865 70.0872 11.0925V19.48H72.4522V11.1475C72.4522 8.92 73.9922 7.4075 76.3022 7.4075C78.5022 7.4075 79.9322 8.865 79.9322 11.0925V19.48H82.2972V10.4325C82.2972 8.81 81.8022 7.545 80.8397 6.5825Z" fill="white"/>
<path fill-rule="evenodd" clip-rule="evenodd" d="M99.7783 13.375V13.3748C99.8035 13.0489 99.8269 12.7465 99.8269 12.4675C99.8269 10.3775 99.1119 8.645 97.6819 7.2425C96.2794 5.84 94.4919 5.125 92.3744 5.125C90.2569 5.125 88.4694 5.84 87.0394 7.2425C85.6369 8.645 84.9219 10.3775 84.9219 12.4675C84.9219 14.5575 85.6369 16.3175 87.0394 17.72C88.4694 19.1225 90.2569 19.81 92.3744 19.81C95.7844 19.81 98.5344 17.885 99.5519 14.9975H96.9394C96.1969 16.565 94.4644 17.6375 92.3744 17.6375C91.1094 17.6375 90.0094 17.2525 89.1019 16.4825C88.1944 15.7125 87.6444 14.695 87.4519 13.4575H99.7719L99.7783 13.375ZM97.2969 11.34H87.4794C87.9469 8.92 89.8719 7.2975 92.3744 7.2975C94.8769 7.2975 96.8569 8.9475 97.2969 11.34Z" fill="white"/>
<path fill-rule="evenodd" clip-rule="evenodd" d="M40.729 5.45502H30.059V7.73753H38.364V10.4875H34.184C32.7265 10.4875 31.5165 10.9275 30.554 11.835C29.5915 12.7151 29.124 13.8151 29.124 15.1351C29.124 16.4826 29.5915 17.5826 30.554 18.4901C31.5165 19.3701 32.7265 19.8101 34.184 19.8101C36.0815 19.8101 37.7315 18.9851 38.6115 17.6651V19.4801H40.729V5.45502ZM38.364 14.8876C38.364 16.5376 36.7965 17.6651 34.4865 17.6651C32.809 17.6651 31.5715 16.5926 31.5715 15.1351C31.5715 13.7051 32.809 12.6326 34.4865 12.6326H38.364V14.8876Z" fill="white"/>
</g>
</g>
<defs>
<clipPath id="clip0_9171_2060">
<rect width="99.875" height="25" fill="white"/>
</clipPath>
</defs>
</svg>
