<svg width="112" height="25" viewBox="0 0 112 25" fill="none" xmlns="http://www.w3.org/2000/svg">
<g clip-path="url(#clip0_9171_2096)">
<mask id="mask0_9171_2096" style="mask-type:luminance" maskUnits="userSpaceOnUse" x="0" y="0" width="112" height="25">
<path d="M111.875 0H0V25H111.875V0Z" fill="white"/>
</mask>
<g mask="url(#mask0_9171_2096)">
<path d="M10.0807 24.9375H8.16992V-0.0625L10.0807 1.52986V24.9375Z" fill="white"/>
<path d="M4.0293 24.9375H5.94012V4.78308L4.0293 6.37543V24.9375Z" fill="white"/>
<path d="M1.95966 24.9375H0.0488281V11.1525L1.95966 9.56018V24.9375Z" fill="white"/>
<path d="M18.2019 24.9375H16.291V9.56018L18.2019 11.1525V24.9375Z" fill="white"/>
<path d="M12.3105 24.9375H14.2213V6.37543L12.3105 4.78308V24.9375Z" fill="white"/>
<path fill-rule="evenodd" clip-rule="evenodd" d="M38.9921 17.8918V17.0323H36.8675V17.8537C36.8675 19.6872 37.4609 21.3251 40.0173 21.3251C42.5737 21.3251 43.2542 19.4772 43.2542 17.5051C43.2542 15.1653 42.6261 14.2724 40.5756 12.7301C39.3716 11.8371 39.1884 11.2976 39.1884 10.376C39.1884 9.45441 39.3499 8.84799 40.0609 8.84799C40.772 8.84799 40.9334 9.44964 40.9334 10.4046V11.0875H43.0274V10.3426C43.0274 8.83366 42.5825 7.00006 40.1089 7.00006C37.6354 7.00006 37.09 8.84799 37.09 10.6768C37.09 12.7348 37.8796 13.4988 39.3499 14.6734C40.82 15.8482 41.1385 16.3113 41.1385 17.8059C41.1385 18.7083 40.9029 19.5011 40.1001 19.5011C39.2975 19.5011 38.9921 18.9232 38.9921 17.8918ZM26.642 21.1244L27.1175 17.4094H29.2334L29.7743 21.1244H31.9818L29.6914 7.22439H26.7074L24.5 21.1244H26.642ZM28.2081 9.2633C28.3651 10.8343 28.6619 13.0738 28.9759 15.4374H27.3967C27.439 15.1167 27.4847 14.7736 27.532 14.4184L27.5321 14.4181C27.788 12.4993 28.0905 10.2303 28.1384 9.2633H28.2081ZM55.0374 21.1244H53.3884C53.3284 20.7808 53.2905 20.4329 53.2749 20.0834C52.8954 21.0098 52.097 21.3298 51.2158 21.3298C49.2003 21.3298 48.5503 19.8496 48.5503 17.5098V10.9632C48.5503 8.69511 49.4228 7.02386 51.8004 7.02386C54.6753 7.02386 54.9806 9.16785 54.9806 10.6624V11.1113H52.8561V10.5574C52.8561 9.82202 52.7514 8.97685 51.7873 8.97685C51.0151 8.97685 50.6879 9.51641 50.6879 10.629V17.7389C50.6879 18.8516 51.0064 19.4293 51.7699 19.4293C52.686 19.4293 52.9085 18.6558 52.9085 17.2233V15.1939H51.7219V13.3507H55.0374V21.1244ZM62.4104 21.1244L62.8903 17.4094H64.9886L65.5295 21.1244H67.7282L65.4379 7.22436H62.454L60.2728 21.1244H62.4104ZM63.9809 9.26329C64.1379 10.8343 64.4345 13.0737 64.7486 15.4373H63.152C63.1943 15.1166 63.24 14.7733 63.2874 14.4181V14.4177L63.2875 14.4174C63.5432 12.4987 63.8457 10.2301 63.8936 9.26329H63.9809ZM74.9522 14.9121V21.1196H72.8409V7.22436H75.7637C77.849 7.22436 79.0792 8.07431 79.0792 10.5669V11.0969C79.0792 13.2313 78.2067 13.7757 77.6875 13.9953C78.4859 14.3773 78.9396 14.9503 78.9396 16.8603C78.9048 18.2847 78.947 19.7102 79.0661 21.1292H77.0245C76.87 20.4077 76.8783 18.6039 76.8834 17.4762C76.8841 17.2978 76.8849 17.1364 76.8849 16.9988C76.8849 15.3037 76.6667 14.9169 75.4409 14.9169L74.9522 14.9121ZM74.9522 13.1406H75.4365C76.5532 13.1406 76.9634 12.7108 76.9634 11.2019V10.7244C76.9634 9.65006 76.7452 8.99589 75.5499 8.99589H74.9522V13.1406ZM87.678 7.22436H84.7507V21.1244H87.678C90.9324 21.1244 91.2901 18.7894 91.2901 16.6646V11.3356C91.2901 8.75236 90.5834 7.22436 87.678 7.22436ZM87.5602 19.3003H86.884V9.06751H87.5471C88.9431 9.06751 89.1612 9.88881 89.1612 11.1637V16.9558C89.1612 18.3931 88.9519 19.3003 87.5602 19.3003ZM99.0987 7.22436V21.1244H96.9873V7.22436H99.0987ZM106.419 21.1244L106.899 17.4094H109.006L109.543 21.1244H111.75L109.46 7.22436H106.476L104.268 21.1244H106.419ZM108.643 14.5981C108.679 14.8754 108.716 15.1556 108.753 15.4373H107.165C107.191 15.2409 107.219 15.0361 107.247 14.8252C107.515 12.8317 107.855 10.2996 107.907 9.26329H107.985C108.123 10.6469 108.374 12.5492 108.643 14.5981Z" fill="white"/>
</g>
</g>
<defs>
<clipPath id="clip0_9171_2096">
<rect width="111.875" height="25" fill="white"/>
</clipPath>
</defs>
</svg>
