<svg width="90" height="25" viewBox="0 0 90 25" fill="none" xmlns="http://www.w3.org/2000/svg">
<g clip-path="url(#clip0_9171_2115)">
<mask id="mask0_9171_2115" style="mask-type:luminance" maskUnits="userSpaceOnUse" x="0" y="0" width="90" height="25">
<path d="M89.501 0H0.000976562V25H89.501V0Z" fill="white"/>
</mask>
<g mask="url(#mask0_9171_2115)">
<path d="M13.2307 21.2185C14.845 21.0819 16.3895 20.5 17.6925 19.5375L20.115 22.4125C18.264 23.8342 16.0518 24.7092 13.7292 24.9385C11.4065 25.1679 9.06606 24.7423 6.97276 23.7102C4.87946 22.6779 3.11696 21.0803 1.88482 19.098C0.652669 17.1158 9.43315e-05 14.8283 0.000977458 12.4943C0.00186058 10.1603 0.656166 7.87325 1.88981 5.89198C3.12346 3.9107 4.88717 2.31438 6.98125 1.28375C9.07532 0.253123 11.4161 -0.170636 13.7386 0.0604497C16.0611 0.291535 18.2725 1.16824 20.1225 2.59129L17.6987 5.46629C16.3966 4.50261 14.8526 3.91933 13.2385 3.78139C11.6245 3.64344 10.0038 3.95626 8.5571 4.685C7.11036 5.41374 5.89432 6.52979 5.04442 7.90884C4.19451 9.28789 3.74412 10.8758 3.7434 12.4957C3.74268 14.1157 4.19166 15.7039 5.04035 17.0838C5.88902 18.4635 7.10407 19.5807 8.55016 20.3107C9.99626 21.0408 11.6166 21.355 13.2307 21.2185Z" fill="white"/>
<path d="M20.9752 21.6863L18.5527 18.8113H18.5565C19.4099 17.9963 20.0892 17.0167 20.5534 15.9317C21.0174 14.8467 21.2567 13.6789 21.2567 12.4988C21.2567 11.3187 21.0174 10.1509 20.5534 9.06589C20.0892 7.98092 19.4099 7.0013 18.5565 6.18628L20.9815 3.31128C22.2499 4.48224 23.262 5.90323 23.9541 7.48472C24.6461 9.06619 25.0031 10.7739 25.0025 12.5002C25.002 14.2264 24.6439 15.9339 23.9507 17.5149C23.2576 19.0959 22.2445 20.5162 20.9752 21.6863Z" fill="white"/>
<path d="M70.8096 0.75V20.825H73.2021V0.75H70.8096Z" fill="white"/>
<path fill-rule="evenodd" clip-rule="evenodd" d="M82.6818 18.9275C80.1243 18.9275 78.1718 17.525 77.7043 15.05H89.2268C89.2818 14.6925 89.3093 14.335 89.3093 13.9775C89.3093 10.1275 86.6143 6.71753 82.4618 6.71753C78.1718 6.71753 75.2568 9.88003 75.2568 13.95C75.2568 18.075 78.1993 21.1825 82.6268 21.1825C85.3768 21.1825 87.4668 19.945 88.6768 18.075L86.6418 16.92C85.9543 18.0475 84.5793 18.9275 82.6818 18.9275ZM77.7043 12.96C78.0893 10.5675 79.8768 8.97253 82.4618 8.97253C84.5243 8.97253 86.4768 10.2375 86.8893 12.96H77.7043Z" fill="white"/>
<path d="M63.085 21.1825C58.9325 21.1825 55.8525 18.02 55.8525 13.95C55.8525 9.88003 58.9325 6.71753 63.085 6.71753C65.8075 6.71753 68.1175 8.14753 69.1625 10.32L67.155 11.475C66.4675 10.0175 64.9275 9.05503 63.085 9.05503C60.335 9.05503 58.245 11.1725 58.245 13.95C58.245 16.7 60.335 18.8175 63.085 18.8175C64.955 18.8175 66.4675 17.855 67.2375 16.425L69.2725 17.6075C68.1175 19.7525 65.78 21.1825 63.085 21.1825Z" fill="white"/>
<path d="M55.8583 6.82751C54.1258 6.82751 52.4483 7.46002 51.5683 9.38502V7.07501H49.1758V20.825H51.5683V13.5375C51.5683 10.2925 53.7958 9.24751 55.8583 9.33001V6.82751Z" fill="white"/>
<path d="M45.1684 4.5726C44.2609 4.5726 43.5459 3.8576 43.5459 2.9776C43.5459 2.0976 44.2609 1.3551 45.1684 1.3551C46.0484 1.3551 46.7634 2.0976 46.7634 2.9776C46.7634 3.8576 46.0484 4.5726 45.1684 4.5726Z" fill="white"/>
<path d="M43.958 20.8251V7.07507H46.3505V20.8251H43.958Z" fill="white"/>
<path d="M29.001 13.95C29.001 18.02 32.081 21.1825 36.2335 21.1825C38.9285 21.1825 41.266 19.7525 42.421 17.6075L40.386 16.425C39.616 17.855 38.1035 18.8175 36.2335 18.8175C33.4835 18.8175 31.3935 16.7 31.3935 13.95C31.3935 11.1725 33.4835 9.05503 36.2335 9.05503C38.076 9.05503 39.616 10.0175 40.3035 11.475L42.311 10.32C41.266 8.14753 38.956 6.71753 36.2335 6.71753C32.081 6.71753 29.001 9.88003 29.001 13.95Z" fill="white"/>
</g>
</g>
<defs>
<clipPath id="clip0_9171_2115">
<rect width="89.5" height="25" fill="white"/>
</clipPath>
</defs>
</svg>
