<svg width="106" height="25" viewBox="0 0 106 25" fill="none" xmlns="http://www.w3.org/2000/svg">
<g clip-path="url(#clip0_9171_2081)">
<mask id="mask0_9171_2081" style="mask-type:luminance" maskUnits="userSpaceOnUse" x="0" y="0" width="106" height="25">
<path d="M106 0H0V25H106V0Z" fill="white"/>
</mask>
<g mask="url(#mask0_9171_2081)">
<path d="M12.5675 0C5.10375 0 0 4.75 0 12.5675C0 20.0312 5.10375 25 12.5675 25C20.0312 25 25 20.0312 25 12.5675C25 4.75 20.0312 0 12.5675 0ZM19.9912 19.9912C19.5047 20.4757 18.9621 20.9004 18.375 21.2563V11L16.125 9.75V22.25C15.3108 22.4926 14.4725 22.6456 13.625 22.7062V6.26875L11.375 5.01875V22.6987C10.5703 22.6324 9.77458 22.484 9 22.2563V10.5L6.75 11.75V21.2738C3.91125 19.5825 2.25 16.5238 2.25 12.5625C2.25 9.38375 3.22125 6.7525 5.06 4.9525C6.8675 3.18625 9.46375 2.25 12.5675 2.25C15.6713 2.25 18.2237 3.1825 20 4.945C21.8013 6.7375 22.75 9.37375 22.75 12.57C22.75 15.625 21.7962 18.1875 19.9912 19.9912Z" fill="white"/>
<path d="M78.2442 7H80.7417L80.7192 18.25H78.2217L78.2442 7Z" fill="white"/>
<path d="M79.4811 4.86248C79.0761 4.86248 78.7236 4.71998 78.4236 4.43498C78.1386 4.13498 77.9961 3.78248 77.9961 3.37748C77.9961 2.97248 78.1386 2.62748 78.4236 2.34248C78.7236 2.05748 79.0761 1.91498 79.4811 1.91498C79.8861 1.91498 80.2311 2.05748 80.5161 2.34248C80.8161 2.62748 80.9661 2.97248 80.9661 3.37748C80.9661 3.78248 80.8161 4.13498 80.5161 4.43498C80.2311 4.71998 79.8861 4.86248 79.4811 4.86248Z" fill="white"/>
<path d="M83.2383 18.25H85.7583V12.3775C85.7583 11.3125 85.9908 10.495 86.4558 9.92504C86.9208 9.35504 87.5733 9.07754 88.4133 9.09254C88.9083 9.09254 89.3358 9.19004 89.6958 9.38504C90.0708 9.58004 90.3558 9.92504 90.5508 10.42C90.7608 10.9 90.8658 11.59 90.8658 12.49V18.25H93.3858V11.815C93.3858 10.09 93.0108 8.81504 92.2608 7.99004C91.5258 7.15004 90.4758 6.73004 89.1108 6.73004C88.2258 6.73004 87.4608 6.95504 86.8158 7.40504C86.3829 7.69698 86.0177 8.08352 85.7199 8.56463L85.6008 7.00004H83.2383V18.25Z" fill="white"/>
<path fill-rule="evenodd" clip-rule="evenodd" d="M97.5819 17.7775C98.4369 18.2725 99.4119 18.52 100.507 18.52C101.362 18.52 102.119 18.4 102.779 18.16C103.454 17.92 104.032 17.575 104.512 17.125C105.007 16.675 105.412 16.15 105.727 15.55L103.409 14.56C103.169 15.04 102.832 15.4375 102.397 15.7525C101.962 16.0525 101.407 16.2025 100.732 16.2025C100.117 16.2025 99.5544 16.0675 99.0444 15.7975C98.5494 15.5125 98.1519 15.1075 97.8519 14.5825C97.6393 14.1908 97.506 13.7408 97.452 13.2325H105.952C105.952 11.8825 105.712 10.72 105.232 9.74498C104.752 8.76998 104.107 8.02748 103.297 7.51748C102.502 6.99248 101.602 6.72998 100.597 6.72998C99.4869 6.72998 98.4969 6.98498 97.6269 7.49498C96.7719 7.98998 96.0969 8.67998 95.6019 9.56498C95.1069 10.45 94.8594 11.47 94.8594 12.625C94.8594 13.78 95.0994 14.8 95.5794 15.685C96.0744 16.57 96.7419 17.2675 97.5819 17.7775ZM103.181 11.23C103.142 11.0879 103.098 10.9529 103.049 10.825C102.824 10.195 102.494 9.72998 102.059 9.42998C101.639 9.11498 101.122 8.95748 100.507 8.95748C99.8619 8.95748 99.3069 9.09998 98.8419 9.38498C98.3769 9.66998 98.0244 10.09 97.7844 10.645C97.7048 10.8243 97.6383 11.0193 97.585 11.23H103.181Z" fill="white"/>
<path d="M73.1963 2.5V18.25H75.7163V2.5H73.1963Z" fill="white"/>
<path fill-rule="evenodd" clip-rule="evenodd" d="M68.4752 18.25L68.3849 16.5705C68.0738 17.0646 67.6914 17.4745 67.2377 17.8C66.5627 18.28 65.7527 18.52 64.8077 18.52C63.7877 18.52 62.8952 18.28 62.1302 17.8C61.3802 17.305 60.7877 16.615 60.3527 15.73C59.9327 14.845 59.7227 13.81 59.7227 12.625C59.7227 11.425 59.9327 10.39 60.3527 9.52C60.7877 8.635 61.3802 7.9525 62.1302 7.4725C62.8952 6.9775 63.7877 6.73 64.8077 6.73C65.7527 6.73 66.5627 6.9775 67.2377 7.4725C67.6807 7.78069 68.0557 8.17235 68.3627 8.64749V2.5H70.8602V18.25H68.4752ZM67.9802 14.4925C68.2352 13.9525 68.3627 13.33 68.3627 12.625C68.3627 11.92 68.2352 11.2975 67.9802 10.7575C67.7402 10.2175 67.3952 9.7975 66.9452 9.4975C66.5102 9.1975 66.0002 9.0475 65.4152 9.0475C64.8152 9.0475 64.2827 9.1975 63.8177 9.4975C63.3527 9.7975 62.9852 10.2175 62.7152 10.7575C62.4602 11.2975 62.3252 11.92 62.3102 12.625C62.3252 13.33 62.4602 13.9525 62.7152 14.4925C62.9852 15.0325 63.3527 15.46 63.8177 15.775C64.2977 16.075 64.8377 16.225 65.4377 16.225C66.0077 16.225 66.5102 16.075 66.9452 15.775C67.3952 15.46 67.7402 15.0325 67.9802 14.4925Z" fill="white"/>
<path d="M55.4854 2.5V18.25H58.0054V2.5H55.4854Z" fill="white"/>
<path fill-rule="evenodd" clip-rule="evenodd" d="M48.0364 18.52C46.9114 18.52 45.9064 18.2725 45.0214 17.7775C44.1514 17.2675 43.4689 16.57 42.9739 15.685C42.4789 14.8 42.2314 13.78 42.2314 12.625C42.2314 11.47 42.4714 10.45 42.9514 9.56504C43.4464 8.68004 44.1289 7.99004 44.9989 7.49504C45.8689 6.98504 46.8664 6.73004 47.9914 6.73004C49.1164 6.73004 50.1139 6.98504 50.9839 7.49504C51.8541 7.99004 52.5289 8.68004 53.0089 9.56504C53.5039 10.45 53.7514 11.47 53.7514 12.625C53.7514 13.78 53.5114 14.8 53.0314 15.685C52.5514 16.57 51.8764 17.2675 51.0064 17.7775C50.1364 18.2725 49.1464 18.52 48.0364 18.52ZM48.0364 16.2025C48.6514 16.2025 49.1989 16.0525 49.6789 15.7525C50.1589 15.4375 50.5339 15.0175 50.8039 14.4925C51.0739 13.9525 51.2089 13.33 51.2089 12.625C51.2089 11.92 51.0666 11.305 50.7816 10.78C50.5114 10.24 50.1364 9.82004 49.6564 9.52004C49.1764 9.20504 48.6214 9.04754 47.9914 9.04754C47.3614 9.04754 46.8064 9.19754 46.3264 9.49754C45.8464 9.79754 45.4714 10.2175 45.2014 10.7575C44.9314 11.2975 44.7964 11.92 44.7964 12.625C44.7964 13.33 44.9314 13.9525 45.2014 14.4925C45.4864 15.0175 45.8689 15.4375 46.3489 15.7525C46.8439 16.0525 47.4064 16.2025 48.0364 16.2025Z" fill="white"/>
<path fill-rule="evenodd" clip-rule="evenodd" d="M32.5858 22.84C33.2308 22.975 33.9508 23.0425 34.7458 23.0425C35.9008 23.0425 36.9133 22.81 37.7833 22.345C38.6533 21.895 39.3283 21.22 39.8083 20.32C40.2883 19.435 40.5283 18.355 40.5283 17.08V7.00004H38.0083V8.81414C37.6723 8.25538 37.2523 7.80068 36.7483 7.45004C36.0733 6.97004 35.2783 6.73004 34.3633 6.73004C33.3433 6.73004 32.4508 6.97004 31.6858 7.45004C30.9358 7.93004 30.3433 8.59754 29.9083 9.45254C29.4883 10.3075 29.2783 11.32 29.2783 12.49C29.2783 13.585 29.4883 14.5525 29.9083 15.3925C30.3433 16.2175 30.9358 16.8625 31.6858 17.3275C32.4508 17.7925 33.3433 18.025 34.3633 18.025C35.2783 18.025 36.0733 17.8 36.7483 17.35C37.2523 17.0104 37.6723 16.5747 38.0083 16.0428V17.1475C38.0083 17.9875 37.8658 18.6775 37.5808 19.2175C37.2958 19.7575 36.8983 20.155 36.3883 20.41C35.8783 20.68 35.3008 20.815 34.6558 20.815C34.0558 20.815 33.5158 20.755 33.0358 20.635C32.5558 20.515 32.1358 20.3725 31.7758 20.2075C31.4308 20.0575 31.1533 19.93 30.9433 19.825L29.9758 21.85C30.2158 22.015 30.5533 22.1875 30.9883 22.3675C31.4233 22.5475 31.9558 22.705 32.5858 22.84ZM36.5458 15.4375C36.1258 15.7375 35.6308 15.8875 35.0608 15.8875C34.4608 15.8875 33.9283 15.7375 33.4633 15.4375C32.9983 15.1375 32.6308 14.7325 32.3608 14.2225C32.1058 13.6975 31.9783 13.0975 31.9783 12.4225C31.9783 11.7325 32.1058 11.1325 32.3608 10.6225C32.6308 10.0975 32.9908 9.69254 33.4408 9.40754C33.9058 9.10754 34.4383 8.95754 35.0383 8.95754C35.6083 8.95754 36.1108 9.10754 36.5458 9.40754C36.9808 9.69254 37.3183 10.0975 37.5583 10.6225C37.7983 11.1325 37.9183 11.7325 37.9183 12.4225C37.9183 13.0975 37.7983 13.6975 37.5583 14.2225C37.3183 14.7325 36.9808 15.1375 36.5458 15.4375Z" fill="white"/>
</g>
</g>
<defs>
<clipPath id="clip0_9171_2081">
<rect width="106" height="25" fill="white"/>
</clipPath>
</defs>
</svg>
