<svg width="93" height="25" viewBox="0 0 93 25" fill="none" xmlns="http://www.w3.org/2000/svg">
<g clip-path="url(#clip0_9171_2070)">
<mask id="mask0_9171_2070" style="mask-type:luminance" maskUnits="userSpaceOnUse" x="0" y="0" width="93" height="25">
<path d="M92.5 0H0V25H92.5V0Z" fill="white"/>
</mask>
<g mask="url(#mask0_9171_2070)">
<path fill-rule="evenodd" clip-rule="evenodd" d="M8.16761 9.83626C7.80255 9.07776 7.6398 8.23777 7.69515 7.39782C7.7505 6.55786 8.02206 5.74649 8.48349 5.04245C8.94491 4.33841 9.58052 3.76564 10.3286 3.37971C11.0767 2.99379 11.9119 2.80783 12.753 2.83989C13.5943 2.87195 14.4128 3.12095 15.1294 3.5627C15.8459 4.00445 16.436 4.62395 16.8425 5.36106C17.249 6.09819 17.4581 6.92787 17.4494 7.76961C17.4406 8.61134 17.2144 9.43651 16.7926 10.165L12.8526 17L14.0339 19.0462L18.5689 11.1913C19.464 9.60135 19.6958 7.72254 19.214 5.96273C18.7323 4.20291 17.5759 2.70415 15.9958 1.79181C14.4156 0.879481 12.5395 0.627219 10.7745 1.0898C9.00959 1.55238 7.49832 2.69245 6.56886 4.26251C6.07524 5.10603 5.76786 6.04542 5.66739 7.01757C5.56691 7.98972 5.67567 8.97213 5.98636 9.89876C6.30232 9.85921 6.62042 9.83918 6.93886 9.83876L8.16761 9.83626ZM24.0614 13.8112C23.5716 12.9516 22.9015 12.2082 22.0971 11.6322C21.2926 11.0563 20.373 10.6615 19.4014 10.475C19.278 10.7698 19.1365 11.0566 18.9776 11.3337L18.3601 12.4025C19.2029 12.4543 20.0177 12.7238 20.7253 13.1845C21.4328 13.6452 22.0088 14.2817 22.3969 15.0315C22.785 15.7814 22.972 16.6191 22.9396 17.4629C22.9072 18.3065 22.6567 19.1275 22.2124 19.8454C21.768 20.5634 21.145 21.1538 20.4044 21.5591C19.6636 21.9644 18.8305 22.1706 17.9862 22.1577C17.142 22.1449 16.3155 21.9132 15.5875 21.4856C14.8595 21.0579 14.2549 20.4486 13.8326 19.7175L9.89885 12.905H7.5376L12.0601 20.74C12.2156 21.0074 12.388 21.2646 12.5764 21.51L12.6139 21.5588C13.258 22.3879 14.0841 23.0576 15.0286 23.5163C15.973 23.975 17.0103 24.2101 18.0601 24.2038C19.2763 24.2036 20.4709 23.8834 21.524 23.2752C22.5771 22.6671 23.4517 21.7925 24.0597 20.7394C24.6679 19.6861 24.988 18.4915 24.988 17.2754C24.9881 16.0592 24.668 14.8645 24.0601 13.8112H24.0614ZM9.19464 21.6065C9.93344 21.2215 10.5614 20.6539 11.0188 19.9575L11.6175 21C11.7833 21.2857 11.9678 21.5601 12.17 21.8213C11.5229 22.5739 10.7199 23.1768 9.81659 23.5881C8.9133 23.9995 7.93135 24.2096 6.9388 24.2038C6.02116 24.2161 5.11021 24.046 4.25884 23.7034C3.40748 23.3608 2.63266 22.8524 1.97939 22.2078C1.32611 21.5632 0.807396 20.7954 0.453351 19.9486C0.0993072 19.102 -0.0830078 18.1934 -0.0830078 17.2756C-0.0830078 16.3579 0.0993072 15.4494 0.453351 14.6026C0.807396 13.756 1.32611 12.988 1.97939 12.3435C2.63266 11.6989 3.40748 11.1906 4.25884 10.8479C5.11021 10.5053 6.02116 10.3352 6.9388 10.3475H16L14.8225 12.3925H6.9388C6.08179 12.3929 5.23996 12.6189 4.4979 13.0476C3.75583 13.4764 3.13966 14.0927 2.71126 14.8351C2.28288 15.5774 2.05736 16.4193 2.05736 17.2763C2.05737 18.1334 2.2829 18.9753 2.7113 19.7175C3.12772 20.4391 3.72189 21.042 4.43724 21.469C5.15259 21.896 5.96531 22.1328 6.79805 22.1569C7.63079 22.1809 8.45584 21.9914 9.19464 21.6065Z" fill="white"/>
<path d="M42.0205 20.2525L41.6605 18.5425L41.4805 18.475C41.3455 18.565 41.1655 18.6325 40.963 18.6325C40.603 18.6325 40.288 18.43 39.9055 18.0025L36.6655 14.2L41.1205 9.40747L41.053 9.24997H38.4205L33.763 14.38V5.28997L33.583 5.15497L31.3105 5.49247V20.5H33.763V16.765L34.8655 15.5725L38.038 19.3975C38.713 20.23 39.568 20.77 40.648 20.77C41.2105 20.77 41.638 20.635 41.9305 20.4325L42.0205 20.2525Z" fill="white"/>
<path fill-rule="evenodd" clip-rule="evenodd" d="M74.0555 8.97999C77.4755 8.97999 79.793 11.59 79.793 14.875C79.793 18.16 77.4755 20.77 74.0555 20.77C72.458 20.77 71.108 20.1175 70.1405 19.1275V20.5H67.9355V5.51499L70.2305 5.17749L70.388 5.28999V10.3975C71.333 9.51999 72.593 8.97999 74.0555 8.97999ZM73.763 18.6325C75.878 18.6325 77.273 16.9675 77.273 14.875C77.273 12.805 75.878 11.1175 73.763 11.1175C71.783 11.1175 70.208 12.4225 70.208 14.875C70.208 17.3275 71.783 18.6325 73.763 18.6325Z" fill="white"/>
<path fill-rule="evenodd" clip-rule="evenodd" d="M92.053 18.565L92.413 20.23L92.323 20.3875C92.008 20.6125 91.5355 20.77 90.973 20.77C89.9605 20.77 89.218 20.23 88.9255 19.3075C87.958 20.23 86.563 20.77 85.078 20.77C82.7605 20.77 80.623 19.4875 80.623 17.0575C80.623 14.56 82.873 13.4125 85.6405 13.4125C86.8555 13.4125 87.8005 13.6375 88.6105 13.93V13.3C88.6105 11.68 87.148 10.8925 85.5955 10.8925C84.313 10.8925 83.323 11.4325 82.5355 12.1975H82.3555L81.118 11.0275V10.8475C82.333 9.67748 83.8855 8.97998 85.8205 8.97998C88.2505 8.97998 91.018 10.06 91.018 13.3V17.6425C91.018 18.25 91.1305 18.6325 91.5355 18.6325C91.693 18.6325 91.8055 18.565 91.8955 18.4975L92.053 18.565ZM88.6105 16.4275V15.595C88.0255 15.37 87.058 15.0775 85.9555 15.0775C84.178 15.0775 83.0755 15.8425 83.0755 17.0575C83.0755 18.34 84.2905 18.97 85.573 18.97C87.1255 18.97 88.6105 18.0025 88.6105 16.4275Z" fill="white"/>
<path d="M65.7218 13.7275C65.7218 10.915 63.8993 8.98004 61.0418 8.98004C59.5343 8.98004 58.2518 9.52004 57.3743 10.3975C57.0818 9.49754 56.3843 8.98004 55.3493 8.98004C54.7643 8.98004 54.2693 9.13754 53.9543 9.36254L53.8643 9.52004L54.2243 11.185L54.3818 11.2525C54.4718 11.185 54.5843 11.1175 54.7418 11.1175C55.1693 11.1175 55.2593 11.5 55.2593 12.1075V20.5H57.7343V13.93C57.7343 12.22 58.8818 11.095 60.5693 11.095C62.2568 11.095 63.2693 12.22 63.2693 13.93V20.5H65.7218V13.7275Z" fill="white"/>
<path fill-rule="evenodd" clip-rule="evenodd" d="M53.2523 18.565L53.6123 20.23L53.5223 20.3875C53.2073 20.6125 52.7348 20.77 52.1723 20.77C51.1598 20.77 50.4173 20.23 50.1248 19.3075C49.1573 20.23 47.7623 20.77 46.2773 20.77C43.9598 20.77 41.8223 19.4875 41.8223 17.0575C41.8223 14.56 44.0723 13.4125 46.8398 13.4125C48.0548 13.4125 48.9998 13.6375 49.8098 13.93V13.3C49.8098 11.68 48.3473 10.8925 46.7948 10.8925C45.5123 10.8925 44.5223 11.4325 43.7348 12.1975H43.5548L42.3173 11.0275V10.8475C43.5323 9.67748 45.0848 8.97998 47.0198 8.97998C49.4498 8.97998 52.2173 10.06 52.2173 13.3V17.6425C52.2173 18.25 52.3298 18.6325 52.7348 18.6325C52.8923 18.6325 53.0048 18.565 53.0948 18.4975L53.2523 18.565ZM49.8098 16.4275V15.595C49.2248 15.37 48.2573 15.0775 47.1548 15.0775C45.3773 15.0775 44.2748 15.8425 44.2748 17.0575C44.2748 18.34 45.4898 18.97 46.7723 18.97C48.3248 18.97 49.8098 18.0025 49.8098 16.4275Z" fill="white"/>
</g>
</g>
<defs>
<clipPath id="clip0_9171_2070">
<rect width="92.5" height="25" fill="white"/>
</clipPath>
</defs>
</svg>
