<svg width="101" height="25" viewBox="0 0 101 25" fill="none" xmlns="http://www.w3.org/2000/svg">
<g clip-path="url(#clip0_9171_2107)">
<path d="M96.9594 2.30322L100.001 22.6967H94.5617L94.2967 19.0312H92.3912L92.0757 22.6967H86.5737L89.2744 2.30322H96.9594ZM94.1454 15.4159C93.8761 13.1067 93.6069 10.2557 93.3377 6.8631C92.7992 10.7596 92.4627 13.6106 92.3281 15.4159H94.1454Z" fill="white"/>
<path d="M85.9108 2.30322V22.6967H80.5981V2.30322H85.9108Z" fill="white"/>
<path d="M78.7366 8.47548H73.8024V6.96391C73.8024 6.25852 73.7393 5.80925 73.6132 5.61611C73.4869 5.42296 73.2766 5.32639 72.9822 5.32639C72.6624 5.32639 72.4186 5.45655 72.2503 5.71688C72.0904 5.9772 72.0104 6.37189 72.0104 6.90094C72.0104 7.58114 72.1031 8.09339 72.2881 8.43769C72.4648 8.78199 72.9653 9.19766 73.7898 9.68472C76.1538 11.0871 77.6428 12.2376 78.2569 13.1361C78.8711 14.0346 79.1782 15.4832 79.1782 17.4819C79.1782 18.9346 79.0057 20.0052 78.6608 20.6939C78.3243 21.3825 77.6681 21.962 76.6922 22.4322C75.7163 22.8941 74.5806 23.125 73.2851 23.125C71.8633 23.125 70.6476 22.8562 69.6381 22.3189C68.6369 21.7814 67.9808 21.097 67.6694 20.2656C67.3582 19.4342 67.2026 18.2544 67.2026 16.7261V15.3909H72.1367V17.8724C72.1367 18.6365 72.2039 19.1278 72.3386 19.3461C72.4816 19.5645 72.7298 19.6736 73.0832 19.6736C73.4364 19.6736 73.6973 19.535 73.8656 19.2579C74.0422 18.9808 74.1306 18.5694 74.1306 18.0235C74.1306 16.8226 73.9664 16.0375 73.6383 15.668C73.3018 15.2985 72.4732 14.6812 71.1524 13.8164C69.8316 12.943 68.9567 12.309 68.5276 11.9143C68.0986 11.5196 67.7411 10.9737 67.4549 10.2767C67.1773 9.57975 67.0386 8.68961 67.0386 7.60633C67.0386 6.04439 67.2362 4.90231 67.6317 4.18013C68.0354 3.45794 68.6832 2.8953 69.5749 2.49222C70.4667 2.08074 71.5436 1.875 72.8054 1.875C74.1852 1.875 75.3588 2.09754 76.3263 2.5426C77.3022 2.98767 77.9457 3.55031 78.2569 4.23051C78.5767 4.90231 78.7366 6.04859 78.7366 7.66931V8.47548Z" fill="white"/>
<path d="M65.7441 14.2446C65.7441 16.2936 65.6938 17.7464 65.5928 18.6029C65.5003 19.4511 65.1974 20.2279 64.6841 20.9333C64.1794 21.6386 63.4938 22.1803 62.6273 22.5581C61.7608 22.936 60.7511 23.125 59.5986 23.125C58.505 23.125 57.5206 22.9486 56.6458 22.596C55.7793 22.2349 55.081 21.6974 54.551 20.9836C54.021 20.2699 53.7055 19.493 53.6045 18.6532C53.5035 17.8135 53.4531 16.344 53.4531 14.2446V10.7554C53.4531 8.70641 53.4994 7.25782 53.5919 6.40968C53.6929 5.55313 53.9957 4.77215 54.5005 4.06676C55.0136 3.36136 55.7035 2.81973 56.57 2.44184C57.4365 2.06395 58.4461 1.875 59.5986 1.875C60.6923 1.875 61.6724 2.05555 62.5389 2.41664C63.4139 2.76934 64.1162 3.30259 64.6462 4.01638C65.1762 4.73016 65.4918 5.50694 65.5928 6.3467C65.6938 7.18645 65.7441 8.65602 65.7441 10.7554V14.2446ZM60.4315 7.54335C60.4315 6.59443 60.3768 5.9898 60.2675 5.72948C60.1665 5.46075 59.952 5.32639 59.6239 5.32639C59.3463 5.32639 59.1318 5.43556 58.9803 5.6539C58.8373 5.86384 58.7658 6.49365 58.7658 7.54335V17.0661C58.7658 18.2503 58.812 18.9808 58.9046 19.2579C59.0055 19.535 59.2326 19.6736 59.586 19.6736C59.9478 19.6736 60.1791 19.514 60.28 19.195C60.381 18.8759 60.4315 18.1159 60.4315 16.915V7.54335Z" fill="white"/>
<path d="M52.6521 2.30322V6.38444H49.4974V22.6967H44.1847V6.38444H41.0425V2.30322H52.6521Z" fill="white"/>
<path d="M40.1527 2.30322V15.9324C40.1527 17.4776 40.1022 18.5651 40.0014 19.1949C39.9004 19.8163 39.6017 20.4587 39.1054 21.1221C38.609 21.7772 37.9529 22.2768 37.1367 22.6211C36.3291 22.9569 35.3742 23.1249 34.2722 23.1249C33.0524 23.1249 31.9755 22.9234 31.0417 22.5203C30.1079 22.1172 29.4096 21.5924 28.947 20.9458C28.4842 20.2992 28.2109 19.6189 28.1267 18.9052C28.0426 18.1829 28.0005 16.6714 28.0005 14.3704V2.30322H33.3131V17.5952C33.3131 18.4853 33.3595 19.0563 33.452 19.3082C33.553 19.5518 33.7506 19.6736 34.0451 19.6736C34.3816 19.6736 34.5961 19.5392 34.6886 19.2704C34.7896 18.9933 34.8401 18.3467 34.8401 17.3307V2.30322H40.1527Z" fill="white"/>
<path fill-rule="evenodd" clip-rule="evenodd" d="M12.5005 18.75C15.9522 18.75 18.7505 15.9517 18.7505 12.5C18.7505 9.04823 15.9522 6.25 12.5005 6.25C9.04871 6.25 6.25049 9.04823 6.25049 12.5C6.25049 15.9517 9.04871 18.75 12.5005 18.75ZM12.5005 25C19.404 25 25.0005 19.4035 25.0005 12.5C25.0005 5.59644 19.404 0 12.5005 0C5.59693 0 0.000488281 5.59644 0.000488281 12.5C0.000488281 19.4035 5.59693 25 12.5005 25Z" fill="white"/>
</g>
<defs>
<clipPath id="clip0_9171_2107">
<rect width="100.125" height="25" fill="white"/>
</clipPath>
</defs>
</svg>
